:SAMPLES-PER-SECOND 30
:FRAME-RANGE 1-1770
:FULLY-SPECIFIED
:DEGREES
1549
root  -13.9824 38.9812 -10.5824 -7.92346 -64.2374 7.84891
RightUpLeg  8.45979 -4.31969 -11.257
RightLeg  13.9311 -8.37809 -4.03062
RightFoot  -17.3234 0.656709 14.754
RightToes  6.35937e-011 1.2921e-014 -6.02303e-014
Spine  5.00871 -1.1196 -4.29312
Spine1  0.937801 -1.3847 0.417694
HEad  10.3689 -42.0268 7.33233
LeftShoulder1  1.3667 -0.299436 -29.8677
LeftArm  3.37165 18.9862 -24.9562
LeftForeArm  5.16262 3.09068 -18.4894
LeftHand  0.294542 0.64983 -7.37585
RightShoulder  9.3234 12.7357 50.2723
RightArm  29.4472 8.7062 17.9291
RightForeArm  3.55635 30.41 6.44825
RightHand  0.0472033 2.37489 0.513141
LeftUpLeg  -15.7603 15.5504 1.7249
LeftLeg  14.4094 -5.16383 -2.23745
LeftFoot  2.91128 0.766396 -6.26835
LeftToes  3.18074e-010 1.39432e-010 -7.71186e-011
1550
root  -14.4832 38.8773 -9.65973 -11.5139 -64.9774 11.5083
RightUpLeg  5.82936 4.06536 -12.0343
RightLeg  22.5472 -15.1451 -6.99886
RightFoot  -16.3794 0.740016 19.1986
RightToes  6.35937e-011 1.2921e-014 -6.02303e-014
Spine  5.36896 -0.73361 -5.9443
Spine1  1.51589 -0.839789 -1.51271
HEad  10.3165 -44.9746 7.58431
LeftShoulder1  1.36682 -0.267905 -30.1753
LeftArm  4.17888 17.8074 -25.5633
LeftForeArm  4.70148 3.54477 -18.6523
LeftHand  0.292668 0.718999 -7.44984
RightShoulder  8.97504 11.8476 51.187
RightArm  29.4629 7.98556 17.7858
RightForeArm  3.43287 28.3768 5.95781
RightHand  0.00677845 2.7688 -0.118148
LeftUpLeg  -15.2317 15.95 -0.409238
LeftLeg  17.1946 -4.56288 -1.93618
LeftFoot  -0.312714 0.589367 -6.08322
LeftToes  3.18074e-010 1.39432e-010 -7.71186e-011
1551
root  -14.9612 38.9335 -8.73319 -13.0321 -66.4476 12.9412
RightUpLeg  0.818618 5.13538 -12.6879
RightLeg  33.4926 -15.5975 -11.0662
RightFoot  -11.901 -0.00444876 15.6392
RightToes  6.35937e-011 1.2921e-014 -6.02303e-014
Spine  5.82456 -0.607301 -5.80129
Spine1  1.69953 -0.478804 -3.13325
HEad  10.3303 -47.6334 6.92439
LeftShoulder1  1.4122 -0.329338 -30.7857
LeftArm  3.67227 16.837 -26.1685
LeftForeArm  5.70682 3.12694 -18.5348
LeftHand  0.2805 0.747763 -7.19424
RightShoulder  9.09055 11.9503 51.4943
RightArm  32.8313 7.07504 18.5062
RightForeArm  -1.30177 24.7825 5.37359
RightHand  -0.0126784 2.88215 -0.398451
LeftUpLeg  -13.8859 16.0253 -1.11542
LeftLeg  18.2748 -3.24245 -1.59585
LeftFoot  -2.82058 0.457707 -5.91463
LeftToes  3.18074e-010 1.39432e-010 -7.71186e-011
1552
root  -15.4492 39.0371 -7.9323 -13.4276 -67.7212 13.2833
RightUpLeg  -4.92266 4.6991 -12.4574
RightLeg  43.0408 -14.4977 -14.3207
RightFoot  -5.7249 -0.411527 7.58277
RightToes  6.35937e-011 1.2921e-014 -6.02303e-014
Spine  6.39481 -0.766183 -6.39014
Spine1  1.64537 -0.743768 -3.26248
HEad  10.1114 -50.2769 5.84078
LeftShoulder1  1.45835 -0.419736 -31.117
LeftArm  2.54448 15.9304 -27.4952
LeftForeArm  7.46043 2.34991 -18.2695
LeftHand  0.279753 0.526005 -6.81267
RightShoulder  9.26445 12.2093 51.6104
RightArm  36.5033 6.82411 19.2161
RightForeArm  -5.29629 20.4505 7.05563
RightHand  0.00850932 3.00786 -0.108796
LeftUpLeg  -12.3079 15.5805 -1.13945
LeftLeg  18.3845 -1.56011 -1.46646
LeftFoot  -4.57701 0.362881 -5.6736
LeftToes  3.18074e-010 1.39432e-010 -7.71186e-011
1553
root  -15.9707 39.1258 -7.21683 -13.7841 -68.8598 13.7756
RightUpLeg  -9.67784 4.22884 -11.9432
RightLeg  47.8966 -8.92597 -10.7402
RightFoot  -6.47023 -0.444303 9.388
RightToes  6.35937e-011 1.2921e-014 -6.02303e-014
Spine  6.51127 -1.10006 -7.79175
Spine1  1.9517 -1.36938 -2.77397
HEad  9.37122 -52.8089 5.03021
LeftShoulder1  1.50434 -0.532703 -31.2182
LeftArm  0.845 14.7249 -29.2039
LeftForeArm  9.34748 1.44794 -17.8881
LeftHand  0.274734 0.23879 -6.27626
RightShoulder  9.44955 12.4645 51.7945
RightArm  32.1489 6.96052 19.3171
RightForeArm  1.14615 14.7778 11.9619
RightHand  0.0776626 3.01545 0.846407
LeftUpLeg  -10.6831 14.2395 -0.881806
LeftLeg  18.0456 0.905777 -1.78867
LeftFoot  -6.15391 0.293139 -5.65435
LeftToes  3.18074e-010 1.39432e-010 -7.71186e-011
1554
root  -16.5459 39.2203 -6.53467 -13.4149 -69.6019 13.5719
RightUpLeg  -13.9126 1.44481 -10.8148
RightLeg  50.3378 -6.09194 -8.16182
RightFoot  -6.31066 -0.492694 10.2096
RightToes  6.35937e-011 1.2921e-014 -6.02303e-014
Spine  6.77093 -1.65146 -9.29897
Spine1  1.90603 -2.31402 -1.65366
HEad  8.18085 -55.209 5.06472
LeftShoulder1  1.55785 -0.686022 -31.1331
LeftArm  0.735836 12.9561 -30.9901
LeftForeArm  10.1026 0.196953 -17.6314
LeftHand  0.290527 -0.0839437 -6.199
RightShoulder  9.40584 12.298 52.0914
RightArm  30.5047 6.62337 18.8568
RightForeArm  6.36173 10.4665 14.9197
RightHand  0.113231 2.95318 1.35268
LeftUpLeg  -8.9544 12.2455 -0.457616
LeftLeg  17.2916 3.57151 -2.26645
LeftFoot  -7.57704 0.236561 -5.81429
LeftToes  3.18074e-010 1.39432e-010 -7.71186e-011
1555
root  -17.1411 39.3521 -5.85586 -12.1425 -70.2227 12.6237
RightUpLeg  -17.5575 -2.06408 -8.73864
RightLeg  50.1375 -6.73608 -8.90697
RightFoot  -6.61119 -0.499466 10.9688
RightToes  6.35937e-011 1.2921e-014 -6.02303e-014
Spine  6.74964 -2.32646 -10.3347
Spine1  1.84704 -3.28729 -0.267807
HEad  6.44574 -57.2193 6.02206
LeftShoulder1  1.63823 -0.931892 -30.8854
LeftArm  1.20206 10.434 -32.6089
LeftForeArm  10.7649 -0.820528 -17.4235
LeftHand  0.301987 -0.379376 -6.0755
RightShoulder  9.05992 11.6066 52.4643
RightArm  31.4884 5.94724 18.0582
RightForeArm  8.31683 7.901 16.4322
RightHand  0.0892765 2.65757 1.08024
LeftUpLeg  -7.17036 10.2609 -0.131704
LeftLeg  15.7897 6.04253 -2.57015
LeftFoot  -8.65571 0.197835 -6.2244
LeftToes  3.18074e-010 1.39432e-010 -7.71186e-011
1556
root  -17.7576 39.4931 -5.17886 -10.9063 -71.1233 11.6725
RightUpLeg  -20.3707 -5.94585 -6.04876
RightLeg  47.1633 -8.83368 -10.3689
RightFoot  -7.22703 -0.437639 10.7809
RightToes  6.35937e-011 1.2921e-014 -6.02303e-014
Spine  6.55572 -2.97734 -10.9401
Spine1  1.90038 -4.13702 1.12741
HEad  4.33314 -58.4201 7.56635
LeftShoulder1  1.70303 -1.13851 -30.6376
LeftArm  1.49897 7.3262 -33.7211
LeftForeArm  12.136 -1.29947 -17.2528
LeftHand  0.306088 -0.651255 -5.84841
RightShoulder  8.48535 10.6336 52.5219
RightArm  24.7696 5.12776 17.4092
RightForeArm  15.1744 3.51447 17.5142
RightHand  0.10501 2.70311 1.29641
LeftUpLeg  -5.00562 9.455 0.0440683
LeftLeg  13.6509 7.43924 -2.93293
LeftFoot  -9.27453 0.167097 -6.18049
LeftToes  3.18074e-010 1.39432e-010 -7.71186e-011
1557
root  -18.414 39.583 -4.51739 -10.418 -72.3125 11.4143
RightUpLeg  -22.1616 -9.49458 -2.95394
RightLeg  41.4667 -11.3011 -10.7736
RightFoot  -7.51476 -0.401164 10.447
RightToes  6.35937e-011 1.2921e-014 -6.02303e-014
Spine  6.40164 -3.54573 -11.5294
Spine1  1.85055 -4.88319 2.4703
HEad  2.64321 -58.7251 8.91181
LeftShoulder1  1.75107 -1.30079 -30.3979
LeftArm  1.78882 4.27377 -34.3205
LeftForeArm  12.5624 -1.97394 -17.0796
LeftHand  0.301989 -0.903021 -5.50976
RightShoulder  7.70547 9.36226 52.4165
RightArm  23.076 4.0576 16.6254
RightForeArm  15.5697 1.99226 17.8665
RightHand  0.102259 2.9119 1.2091
LeftUpLeg  -2.77733 9.47413 -0.154016
LeftLeg  11.5982 8.53748 -3.01278
LeftFoot  -9.80542 0.139957 -6.05681
LeftToes  3.18074e-010 1.39432e-010 -7.71186e-011
1558
root  -19.1003 39.6135 -3.88352 -10.8002 -73.7394 12.1172
RightUpLeg  -23.0036 -13.0406 0.437405
RightLeg  33.1071 -12.6737 -8.98437
RightFoot  -7.44081 -0.400402 10.2423
RightToes  6.35937e-011 1.2921e-014 -6.02303e-014
Spine  5.95479 -4.0872 -12.1607
Spine1  1.99768 -5.56269 3.65473
HEad  1.31297 -58.5277 9.8875
LeftShoulder1  1.76538 -1.38264 -30.0772
LeftArm  0.547988 1.18667 -34.4433
LeftForeArm  13.5211 -2.05454 -16.885
LeftHand  0.300227 -1.1124 -5.27787
RightShoulder  6.911 8.0876 52.194
RightArm  21.7625 3.00753 15.7837
RightForeArm  14.924 1.26677 18.0046
RightHand  0.0954193 2.45168 1.21654
LeftUpLeg  -0.750992 9.09412 -0.820512
LeftLeg  9.83711 10.2208 -2.68206
LeftFoot  -10.7001 0.101466 -6.68058
LeftToes  3.18074e-010 1.39432e-010 -7.71186e-011
1559
root  -19.8459 39.5328 -3.26535 -13.6399 -75.6036 15.2065
RightUpLeg  -22.9119 -17.1721 3.96977
RightLeg  23.0226 -12.4034 -5.92143
RightFoot  -7.17054 -0.452218 11.0429
RightToes  6.35937e-011 1.2921e-014 -6.02303e-014
Spine  5.4403 -4.40725 -12.7818
Spine1  2.09383 -5.90338 4.23947
HEad  0.80677 -58.1998 10.2633
LeftShoulder1  1.78727 -1.4855 -29.7675
LeftArm  -1.21597 -1.74319 -34.0688
LeftForeArm  14.1273 -1.89919 -16.724
LeftHand  0.290479 -1.16299 -5.05841
RightShoulder  6.17358 6.93266 51.8013
RightArm  20.339 1.91989 15.0762
RightForeArm  15.4103 0.489483 18.0515
RightHand  0.0850488 2.31216 1.09376
LeftUpLeg  1.2156 8.60639 -2.06342
LeftLeg  8.61819 12.6085 -2.26539
LeftFoot  -11.4871 0.0604825 -6.50793
LeftToes  3.18074e-010 1.39432e-010 -7.71186e-011
1560
root  -20.6502 39.352 -2.65479 -19.2175 -77.167 20.9641
RightUpLeg  -21.9161 -20.5548 6.60134
RightLeg  12.7664 -12.1768 -2.25469
RightFoot  -6.60851 -0.511218 11.2448
RightToes  6.35937e-011 1.2921e-014 -6.02303e-014
Spine  4.89268 -4.80608 -13.5947
Spine1  2.26025 -6.3022 4.58612
HEad  0.600891 -57.6908 10.1835
LeftShoulder1  1.79234 -1.55368 -29.3792
LeftArm  -3.53938 -4.47555 -33.614
LeftForeArm  15.1585 -1.24215 -16.6048
LeftHand  0.266917 -1.08732 -4.70195
RightShoulder  5.60805 6.09212 51.1971
RightArm  19.4731 0.832438 14.5366
RightForeArm  16.202 -0.239761 18.0853
RightHand  0.0804265 2.27464 1.03217
LeftUpLeg  3.03878 8.1635 -3.73173
LeftLeg  8.07881 14.7692 -2.02174
LeftFoot  -12.7742 -0.00550162 -6.55002
LeftToes  3.18074e-010 1.39432e-010 -7.71186e-011
